<?xml version="1.0" encoding="UTF-8"?>
<svg enable-background="new 0 0 496.158 496.158" version="1.1" viewBox="0 0 496.158 496.158" xml:space="preserve" xmlns="http://www.w3.org/2000/svg">
<path d="m248.08 3e-3c-137.01 0-248.08 111.06-248.08 248.08 0 137 111.07 248.07 248.08 248.07 137.01 0 248.08-111.07 248.08-248.07 0-137.02-111.07-248.08-248.08-248.08z" fill="#56B48C"/>
<path d="m278.77 145.42c-3.126-4.003-7.276-6.006-12.451-6.006-4.591 0-7.716 0.879-9.375 2.637-1.662 1.758-5.226 6.445-10.693 14.063-5.47 7.617-11.744 14.502-18.823 20.654-7.082 6.152-16.53 12.012-28.345 17.578-7.91 3.712-13.429 6.738-16.553 9.082-3.126 2.344-4.688 6.006-4.688 10.986 0 4.298 1.586 8.082 4.761 11.353 3.172 3.273 6.812 4.907 10.913 4.907 8.592 0 25.292-9.521 50.098-28.564v133.3c0 7.814 1.806 13.722 5.42 17.725 3.612 4.003 8.397 6.006 14.355 6.006 13.378 0 20.068-9.814 20.068-29.443v-167.73c1e-3 -7.031-1.562-12.547-4.687-16.553z" fill="#fff"/>
</svg>
